<?xml version="1.0" encoding="utf-8"?>
<!-- Generator: Adobe Illustrator 24.0.2, SVG Export Plug-In . SVG Version: 6.00 Build 0)  -->
<svg version="1.1" id="Layer_1" xmlns="http://www.w3.org/2000/svg" xmlns:xlink="http://www.w3.org/1999/xlink" x="0px" y="0px"
	 viewBox="0 0 297 95" style="enable-background:new 0 0 297 95;" xml:space="preserve">
<style type="text/css">
	.st0{fill:#121212;}
</style>
<path class="st0" d="M66.8,50.7l5-2.6V8.4H68l-9.3,12.4h-1L58.2,7h40.5l0.6,13.8h-1.1L89,8.4h-3.9V48l5,2.7V52H66.9L66.8,50.7
	L66.8,50.7z M103.8,48.9V5L100,3.5V2.6l14.2-2.5h1.5v20.8l0.3-0.4c3.4-2.9,7.7-4.5,12.2-4.5c6.2,0,9,3.5,9,10v23l3.3,1.7V52H122
	v-1.3l3.4-1.8V26c0-3.6-1.6-5-4.6-5c-1.8,0-3.5,0.5-4.9,1.6V49l3.3,1.8V52h-18.5v-1.2L103.8,48.9z M152.2,35.5
	c0.4,7.2,3.6,12.8,11.4,12.8c3.7,0,6.3-1.7,8.8-3v1.5c-3.4,4-8.4,6.3-13.6,6.2c-12,0-18-6.6-18-18.1c0-11.3,6.6-18.3,17.4-18.3
	c10.2,0,15.5,5,15.5,18.4v0.4L152.2,35.5z M152,33.8l10.5-0.7c0-9-1.5-15-4.6-15c-3.3,0-5.9,7-5.9,15.6 M0,69.6
	c0-19.1,12.7-26,26.8-26c6,0,11.6,1,14.8,2.3l0.3,13.4h-1.4l-8.3-13c-1.7-0.6-3.4-0.9-5.2-0.8c-7.5,0-11.3,8.7-11.2,22.9
	c0.1,17,3,24.7,10,24.7c1.4,0,2.8-0.2,4.1-0.7V74.2l-4.5-2.6V70h22v1.7l-4.5,2.5v18c-5.4,1.9-11,2.8-16.7,2.8C10.2,95,0,87.5,0,69.6
	 M47.1,60.6v-1L62,57l1.6,0.1v29c0,3.6,1.7,4.6,4.5,4.6c1.9,0,3.6-0.8,4.8-2.2v-26l-4-1.8v-1.2L83.6,57l1.4,0.2v33.3l4,1.6v1.1
	L74.4,95L73,94.9v-4.4h-0.4c-3,2.8-7,4.5-11.1,4.5C54.4,95,51,90.8,51,84.5v-22L47.1,60.6z M141.6,56.9l1.2,0.1v10.8h0.4
	c1.6-7.9,5-10.8,9.3-10.8c0.6,0,1.2,0.1,1.8,0.3v11c-1-0.2-2-0.3-3-0.3c-2.8-0.1-5.5,0.5-8,1.6v21.2l3.4,1.9V94h-19.3v-1.3l3.5-1.9
	v-29l-4-1.2v-1L141.6,56.9z M178.7,57.8V46.5l-4-1.5v-0.9l15-2.7l1.3,0.2v48.8l4.2,1.5V93l-14.8,2l-1.1-0.1v-4h-0.4
	c-2.5,2.7-6.1,4.2-9.8,4.1c-8,0-13.9-6.1-13.9-18.7c0-13.2,6.9-19.7,17.2-19.7C174.6,56.5,176.7,56.9,178.7,57.8 M178.7,89V60
	c-1.1-0.9-2.5-1.4-4-1.3c-4,0.1-6.5,6.2-6.5,16.9c0,9.6,1.8,15,7,14.8C176.5,90.4,177.7,90,178.7,89 M211.5,57h1.3v34l3.4,1.8V94
	H197v-1.3l3.4-1.9V62.4l-4-1.7v-1.1L211.5,57z M212.9,47.8c-0.1,3.5-3,6.4-6.5,6.3c0,0-0.1,0-0.1,0c-3.5,0-6.3-2.8-6.3-6.3
	c0-3.5,2.8-6.3,6.3-6.3c0,0,0,0,0,0C209.9,41.4,212.8,44.2,212.9,47.8 M259.2,90.9V62l-4-1.4v-1.4l14.7-2.8l1.5,0.2v4.3h0.4
	c3.5-3,7.9-4.7,12.5-4.7c6.4,0,9.3,3,9.3,9.8v24.8l3.4,1.9V94h-19.2v-1.3l3.5-1.9v-24c0-3.8-1.6-5.3-4.7-5.3c-1.8,0-3.6,0.6-5,1.7
	v27.6l3.3,1.9V94h-19.1v-1.3L259.2,90.9z M237.9,72.9V68c0-7.3-1.5-9.6-6-9.6c-0.5,0-1.1,0-1.6,0l-8,11h-1.1v-10
	c4.3-1.5,8.9-2.3,13.5-2.4c9.8,0,15.5,2.7,15.5,11v23.5l3.5,1v0.9c-2.2,1.1-4.7,1.7-7.2,1.6c-4.9,0-7.2-1.6-8.3-4.2h-0.3
	c-2,2.8-5,4.3-9.6,4.3c-5.8,0-9.8-3.6-9.8-9.9c0-6,3.8-9.4,11.5-10.8L237.9,72.9z M237.9,89.1V74.5l-2.4,0.2
	c-3.9,0.3-5.2,2.7-5.2,8.2c0,5.9,1.9,7.4,4.6,7.4C236.1,90.4,237.2,89.9,237.9,89.1 M109.7,72.7V68c0-7.3-1.6-9.7-6.1-9.7
	c-0.5,0-1,0.1-1.5,0.2L94,69.2h-1v-10c4.3-1.5,8.8-2.2,13.4-2.3c9.8,0,15.5,2.7,15.5,11v23.5l3.5,1v0.9c-2.2,1.1-4.7,1.7-7.2,1.6
	c-4.9,0-7.2-1.6-8.3-4.2h-0.3c-2,2.8-5,4.3-9.5,4.3c-5.9,0-9.8-3.6-9.8-9.9c0-6,3.7-9.4,11.4-10.8L109.7,72.7z M109.7,89V74.5
	l-2.5,0.2c-3.8,0.3-5.2,2.7-5.2,8.2c0,5.9,2,7.4,4.6,7.4C107.8,90.4,108.9,89.9,109.7,89"/>
</svg>
